<svg viewBox="0 0 32 32" fill="none" xmlns="http://www.w3.org/2000/svg">
  <defs>
    <radialGradient id="fb" cx="50%" cy="40%" r="50%">
      <stop offset="0%" stop-color="#b8edff"/>
      <stop offset="100%" stop-color="#38bdf8"/>
    </radialGradient>
  </defs>
  <path d="M8 18 C8 11, 11 6, 16 6 C21 6, 24 11, 24 18 L24 24.5 C24 25.3, 23.2 26, 22.4 25.3 L21 24 C20.2 23.2, 19.2 23.2, 18.4 24 L17 25.3 C16.6 25.7, 15.4 25.7, 15 25.3 L13.6 24 C12.8 23.2, 11.8 23.2, 11 24 L9.6 25.3 C8.8 26, 8 25.3, 8 24.5 Z" fill="url(#fb)"/>
  <ellipse cx="16" cy="15.5" rx="6.5" ry="4.2" fill="#0f172a" opacity="0.85"/>
  <circle cx="13" cy="15.5" r="1.6" fill="#7dd3fc"/>
  <circle cx="19" cy="15.5" r="1.6" fill="#7dd3fc"/>
  <circle cx="13.4" cy="15" r="0.5" fill="white" opacity="0.9"/>
  <circle cx="19.4" cy="15" r="0.5" fill="white" opacity="0.9"/>
  <line x1="13" y1="7" x2="11.5" y2="4" stroke="#7dd3fc" stroke-width="1" stroke-linecap="round"/>
  <circle cx="11.5" cy="3.5" r="1.3" fill="#7dd3fc"/>
  <line x1="19" y1="7" x2="20.5" y2="4" stroke="#7dd3fc" stroke-width="1" stroke-linecap="round"/>
  <circle cx="20.5" cy="3.5" r="1.3" fill="#7dd3fc"/>
</svg>
