<svg viewBox="0 0 40 40" fill="none" xmlns="http://www.w3.org/2000/svg">
  <defs>
    <radialGradient id="body" cx="50%" cy="40%" r="50%">
      <stop offset="0%" stop-color="#b8edff"/>
      <stop offset="60%" stop-color="#7dd3fc"/>
      <stop offset="100%" stop-color="#38bdf8"/>
    </radialGradient>
    <radialGradient id="glow" cx="50%" cy="50%" r="50%">
      <stop offset="0%" stop-color="#7dd3fc" stop-opacity="0.35"/>
      <stop offset="100%" stop-color="#7dd3fc" stop-opacity="0"/>
    </radialGradient>
    <radialGradient id="eye-glow" cx="50%" cy="50%" r="50%">
      <stop offset="0%" stop-color="#7dd3fc" stop-opacity="0.9"/>
      <stop offset="100%" stop-color="#38bdf8" stop-opacity="0.6"/>
    </radialGradient>
  </defs>
  <!-- Outer glow -->
  <circle cx="20" cy="22" r="19" fill="url(#glow)"/>
  <!-- Ghost body -->
  <path d="M10 22 C10 13.5, 14 7.5, 20 7.5 C26 7.5, 30 13.5, 30 22 L30 30.5 C30 31.5, 29 32.5, 28 31.5 L26 29.5 C25 28.5, 24 28.5, 23 29.5 L21 31.5 C20.5 32, 19.5 32, 19 31.5 L17 29.5 C16 28.5, 15 28.5, 14 29.5 L12 31.5 C11 32.5, 10 31.5, 10 30.5 Z" fill="url(#body)" stroke="#a5f3fc" stroke-width="0.5" stroke-opacity="0.5"/>
  <!-- Face dark area -->
  <ellipse cx="20" cy="19.5" rx="8" ry="5.5" fill="#0f172a" opacity="0.85" rx="8" ry="5"/>
  <!-- Eyes - glowing -->
  <circle cx="16" cy="19.5" r="2" fill="url(#eye-glow)"/>
  <circle cx="24" cy="19.5" r="2" fill="url(#eye-glow)"/>
  <!-- Eye shine -->
  <circle cx="16.6" cy="18.8" r="0.7" fill="white" opacity="0.9"/>
  <circle cx="24.6" cy="18.8" r="0.7" fill="white" opacity="0.9"/>
  <!-- Smile -->
  <path d="M17.5 22.5 Q20 24.5, 22.5 22.5" stroke="#7dd3fc" stroke-width="0.8" fill="none" stroke-linecap="round" opacity="0.7"/>
  <!-- Antennae -->
  <line x1="16" y1="8.5" x2="14" y2="4.5" stroke="#7dd3fc" stroke-width="1.2" stroke-linecap="round"/>
  <circle cx="14" cy="4" r="1.8" fill="#7dd3fc"/>
  <circle cx="14" cy="4" r="1" fill="#b8edff"/>
  <line x1="24" y1="8.5" x2="26" y2="4.5" stroke="#7dd3fc" stroke-width="1.2" stroke-linecap="round"/>
  <circle cx="26" cy="4" r="1.8" fill="#7dd3fc"/>
  <circle cx="26" cy="4" r="1" fill="#b8edff"/>
</svg>
