<?xml version="1.0" encoding="UTF-8"?>
<svg xmlns="http://www.w3.org/2000/svg" viewBox="0 0 800 460" width="800" height="460">
<defs>
  <marker id="arr-b" markerWidth="8" markerHeight="8" refX="6" refY="3" orient="auto">
    <path d="M0,0 L0,6 L8,3 z" fill="#58a6ff"/>
  </marker>
  <marker id="arr-g" markerWidth="8" markerHeight="8" refX="6" refY="3" orient="auto">
    <path d="M0,0 L0,6 L8,3 z" fill="#3fb950"/>
  </marker>
  <marker id="arr-r" markerWidth="8" markerHeight="8" refX="6" refY="3" orient="auto">
    <path d="M0,0 L0,6 L8,3 z" fill="#f85149"/>
  </marker>
  <marker id="arr-m" markerWidth="8" markerHeight="8" refX="6" refY="3" orient="auto">
    <path d="M0,0 L0,6 L8,3 z" fill="#8b949e"/>
  </marker>
</defs>
<rect width="800" height="460" fill="#0d1117"/>
<text x="16" y="20" font-family="monospace" font-size="11" fill="#8b949e">goto-restore.svg</text>
<rect x="200" y="28" width="400" height="32" rx="6" fill="#161b22" stroke="#58a6ff" stroke-width="2"/>
<text x="400" y="49" font-family="monospace" font-size="14" fill="#58a6ff" text-anchor="middle" font-weight="700">rw goto cp_a3f2b1</text>
<line x1="400" y1="76" x2="400" y2="370" stroke="#30363d" stroke-width="1.5" stroke-dasharray="6,3"/>
<text x="195" y="88" font-family="sans-serif" font-size="12" fill="#8b949e" text-anchor="middle" font-weight="600">BEFORE</text>
<text x="195" y="104" font-family="sans-serif" font-size="11" fill="#6e7681" text-anchor="middle">your disk right now</text>
<rect x="30" y="114" width="310" height="44" rx="6" fill="#161b22" stroke="#f0883e" stroke-width="1.8"/>
<text x="52" y="133" font-family="monospace" font-size="13" fill="#e6edf3">auth.js</text>
<text x="290" y="133" font-family="monospace" font-size="11" fill="#f0883e" text-anchor="end">~ modified</text>
<text x="52" y="150" font-family="monospace" font-size="10" fill="#8b949e">hash: 9d1e4f72...  (differs from checkpoint)</text>
<rect x="30" y="168" width="310" height="44" rx="6" fill="#161b22" stroke="#f0883e" stroke-width="1.8"/>
<text x="52" y="187" font-family="monospace" font-size="13" fill="#e6edf3">index.js</text>
<text x="290" y="187" font-family="monospace" font-size="11" fill="#f0883e" text-anchor="end">~ modified</text>
<text x="52" y="204" font-family="monospace" font-size="10" fill="#8b949e">hash: 7f3c9a10...  (differs from checkpoint)</text>
<rect x="30" y="222" width="310" height="44" rx="6" fill="#161b22" stroke="#30363d" stroke-width="1.5"/>
<text x="52" y="241" font-family="monospace" font-size="13" fill="#8b949e">utils.js</text>
<text x="290" y="241" font-family="monospace" font-size="11" fill="#8b949e" text-anchor="end">= unchanged</text>
<text x="52" y="258" font-family="monospace" font-size="10" fill="#6e7681">hash: a3f2b1c8...  (matches checkpoint)</text>
<rect x="30" y="276" width="310" height="44" rx="6" fill="#161b22" stroke="#3fb950" stroke-width="1.8"/>
<text x="52" y="295" font-family="monospace" font-size="13" fill="#e6edf3">newfile.js</text>
<text x="290" y="295" font-family="monospace" font-size="11" fill="#3fb950" text-anchor="end">+ added</text>
<text x="52" y="312" font-family="monospace" font-size="10" fill="#8b949e">not in checkpoint</text>
<text x="400" y="88" font-family="sans-serif" font-size="10" fill="#8b949e" text-anchor="middle">PROCESS</text>
<text x="605" y="88" font-family="sans-serif" font-size="12" fill="#58a6ff" text-anchor="middle" font-weight="600">AFTER</text>
<text x="605" y="104" font-family="sans-serif" font-size="11" fill="#6e7681" text-anchor="middle">after rw goto cp_a3f2b1</text>
<rect x="460" y="114" width="310" height="44" rx="6" fill="#161b22" stroke="#58a6ff" stroke-width="2"/>
<text x="482" y="133" font-family="monospace" font-size="13" fill="#e6edf3">auth.js</text>
<text x="758" y="133" font-family="monospace" font-size="11" fill="#58a6ff" text-anchor="end">&#x2190; restored</text>
<text x="482" y="150" font-family="monospace" font-size="10" fill="#58a6ff">written from object store · a3f2b1...</text>
<rect x="460" y="168" width="310" height="44" rx="6" fill="#161b22" stroke="#58a6ff" stroke-width="2"/>
<text x="482" y="187" font-family="monospace" font-size="13" fill="#e6edf3">index.js</text>
<text x="758" y="187" font-family="monospace" font-size="11" fill="#58a6ff" text-anchor="end">&#x2190; restored</text>
<text x="482" y="204" font-family="monospace" font-size="10" fill="#58a6ff">written from object store · 7c9d4e...</text>
<rect x="460" y="222" width="310" height="44" rx="6" fill="#161b22" stroke="#30363d" stroke-width="1.5"/>
<text x="482" y="241" font-family="monospace" font-size="13" fill="#8b949e">utils.js</text>
<text x="758" y="241" font-family="monospace" font-size="11" fill="#8b949e" text-anchor="end">&#x23E9; skipped</text>
<text x="482" y="258" font-family="monospace" font-size="10" fill="#6e7681">hash matches · no disk write</text>
<rect x="460" y="276" width="310" height="44" rx="6" fill="#161b22" stroke="#f85149" stroke-width="2"/>
<text x="482" y="295" font-family="monospace" font-size="13" fill="#f85149">newfile.js</text>
<text x="758" y="295" font-family="monospace" font-size="11" fill="#f85149" text-anchor="end">&#x2715; deleted</text>
<text x="482" y="312" font-family="monospace" font-size="10" fill="#f85149">not in checkpoint · removed</text>
<line x1="342" y1="136" x2="458" y2="136" stroke="#58a6ff" stroke-width="1.8" marker-end="url(#arr-b)"/>
<line x1="342" y1="190" x2="458" y2="190" stroke="#58a6ff" stroke-width="1.8" marker-end="url(#arr-b)"/>
<line x1="342" y1="244" x2="458" y2="244" stroke="#8b949e" stroke-width="1.2" stroke-dasharray="4,3" marker-end="url(#arr-m)"/>
<line x1="342" y1="298" x2="458" y2="298" stroke="#f85149" stroke-width="1.8" marker-end="url(#arr-r)"/>
<text x="400" y="129" font-family="monospace" font-size="9" fill="#58a6ff" text-anchor="middle">write</text>
<text x="400" y="183" font-family="monospace" font-size="9" fill="#58a6ff" text-anchor="middle">write</text>
<text x="400" y="237" font-family="monospace" font-size="9" fill="#8b949e" text-anchor="middle">skip</text>
<text x="400" y="291" font-family="monospace" font-size="9" fill="#f85149" text-anchor="middle">delete</text>
<rect x="334" y="330" width="132" height="120" rx="6" fill="#161b22" stroke="#30363d" stroke-width="1"/>
<text x="400" y="348" font-family="sans-serif" font-size="10" fill="#8b949e" text-anchor="middle">steps</text>
<text x="344" y="364" font-family="monospace" font-size="9" fill="#e6edf3">1. load checkpoint</text>
<text x="344" y="378" font-family="monospace" font-size="9" fill="#e6edf3">2. read its snapshot</text>
<text x="344" y="392" font-family="monospace" font-size="9" fill="#e6edf3">3. compare hashes</text>
<text x="344" y="406" font-family="monospace" font-size="9" fill="#58a6ff">4. write changed files</text>
<text x="344" y="420" font-family="monospace" font-size="9" fill="#f85149">5. delete extra files</text>
<text x="344" y="434" font-family="monospace" font-size="9" fill="#3fb950">6. update HEAD pointer</text>
<rect x="30" y="362" width="290" height="30" rx="4" fill="#161b22" stroke="#30363d" stroke-width="1"/>
<text x="175" y="382" font-family="sans-serif" font-size="11" fill="#8b949e" text-anchor="middle">2 files written · utils.js skipped (fast)</text>
<rect x="480" y="362" width="290" height="30" rx="4" fill="#161b22" stroke="#30363d" stroke-width="1"/>
<text x="625" y="382" font-family="sans-serif" font-size="11" fill="#8b949e" text-anchor="middle">delta restore — only what changed</text>
</svg>
