<?xml version="1.0" encoding="UTF-8"?>
<svg xmlns="http://www.w3.org/2000/svg" viewBox="0 0 800 580" width="800" height="580">
<defs>
  <marker id="arr" markerWidth="8" markerHeight="8" refX="6" refY="3" orient="auto">
    <path d="M0,0 L0,6 L8,3 z" fill="#58a6ff"/>
  </marker>
  <marker id="arr-g" markerWidth="8" markerHeight="8" refX="6" refY="3" orient="auto">
    <path d="M0,0 L0,6 L8,3 z" fill="#3fb950"/>
  </marker>
  <marker id="arr-m" markerWidth="8" markerHeight="8" refX="6" refY="3" orient="auto">
    <path d="M0,0 L0,6 L8,3 z" fill="#30363d"/>
  </marker>
</defs>
<rect width="800" height="580" fill="#0d1117"/>
<text x="16" y="22" font-family="monospace" font-size="11" fill="#8b949e">system-architecture.svg</text>
<text x="16" y="50" font-family="sans-serif" font-size="11" fill="#8b949e" letter-spacing="1">USER INTERFACES</text>
<rect x="60" y="58" width="160" height="44" rx="6" fill="#161b22" stroke="#f0883e" stroke-width="1.5"/>
<text x="140" y="76" font-family="sans-serif" font-size="13" fill="#f0883e" text-anchor="middle" font-weight="600">CLI</text>
<text x="140" y="93" font-family="monospace" font-size="11" fill="#8b949e" text-anchor="middle">rw &lt;command&gt;</text>
<rect x="320" y="58" width="160" height="44" rx="6" fill="#161b22" stroke="#f0883e" stroke-width="1.5"/>
<text x="400" y="76" font-family="sans-serif" font-size="13" fill="#f0883e" text-anchor="middle" font-weight="600">Go SDK</text>
<text x="400" y="93" font-family="monospace" font-size="11" fill="#8b949e" text-anchor="middle">sdk.New(path)</text>
<rect x="580" y="58" width="160" height="44" rx="6" fill="#161b22" stroke="#f0883e" stroke-width="1.5" stroke-dasharray="5,3"/>
<text x="660" y="76" font-family="sans-serif" font-size="13" fill="#f0883e" text-anchor="middle" font-weight="600">Web Dashboard</text>
<text x="660" y="93" font-family="monospace" font-size="11" fill="#8b949e" text-anchor="middle">planned</text>
<line x1="140" y1="102" x2="140" y2="130" stroke="#f0883e" stroke-width="1.5" marker-end="url(#arr-m)"/>
<line x1="400" y1="102" x2="400" y2="130" stroke="#f0883e" stroke-width="1.5" marker-end="url(#arr-m)"/>
<line x1="660" y1="102" x2="660" y2="130" stroke="#f0883e" stroke-width="1.5" stroke-dasharray="4,3" marker-end="url(#arr-m)"/>
<line x1="140" y1="116" x2="660" y2="116" stroke="#30363d" stroke-width="1"/>
<text x="16" y="148" font-family="sans-serif" font-size="11" fill="#8b949e" letter-spacing="1">COMMAND HANDLER</text>
<rect x="60" y="134" width="680" height="40" rx="6" fill="#161b22" stroke="#30363d" stroke-width="1.5"/>
<text x="400" y="150" font-family="sans-serif" font-size="13" fill="#e6edf3" text-anchor="middle" font-weight="600">Command Handler / Router</text>
<text x="400" y="167" font-family="monospace" font-size="10" fill="#8b949e" text-anchor="middle">parse flags · resolve refs · acquire lock · dispatch</text>
<line x1="190" y1="174" x2="130" y2="218" stroke="#58a6ff" stroke-width="1.5" marker-end="url(#arr)"/>
<line x1="310" y1="174" x2="310" y2="218" stroke="#58a6ff" stroke-width="1.5" marker-end="url(#arr)"/>
<line x1="490" y1="174" x2="490" y2="218" stroke="#58a6ff" stroke-width="1.5" marker-end="url(#arr)"/>
<line x1="610" y1="174" x2="670" y2="218" stroke="#58a6ff" stroke-width="1.5" marker-end="url(#arr)"/>
<text x="16" y="214" font-family="sans-serif" font-size="11" fill="#8b949e" letter-spacing="1">CORE ENGINES</text>
<rect x="30" y="220" width="155" height="52" rx="6" fill="#161b22" stroke="#58a6ff" stroke-width="2"/>
<text x="107" y="241" font-family="sans-serif" font-size="12" fill="#58a6ff" text-anchor="middle" font-weight="700">Timeline Engine</text>
<text x="107" y="258" font-family="monospace" font-size="10" fill="#8b949e" text-anchor="middle">DAG · branches</text>
<text x="107" y="270" font-family="monospace" font-size="10" fill="#8b949e" text-anchor="middle">HEAD · refs</text>
<rect x="215" y="220" width="155" height="52" rx="6" fill="#161b22" stroke="#58a6ff" stroke-width="2"/>
<text x="292" y="241" font-family="sans-serif" font-size="12" fill="#58a6ff" text-anchor="middle" font-weight="700">Snapshot Engine</text>
<text x="292" y="258" font-family="monospace" font-size="10" fill="#8b949e" text-anchor="middle">scan · hash · save</text>
<text x="292" y="270" font-family="monospace" font-size="10" fill="#8b949e" text-anchor="middle">restore · cache</text>
<rect x="400" y="220" width="155" height="52" rx="6" fill="#161b22" stroke="#58a6ff" stroke-width="2"/>
<text x="477" y="241" font-family="sans-serif" font-size="12" fill="#58a6ff" text-anchor="middle" font-weight="700">Diff Engine</text>
<text x="477" y="258" font-family="monospace" font-size="10" fill="#8b949e" text-anchor="middle">Myers · unified</text>
<text x="477" y="270" font-family="monospace" font-size="10" fill="#8b949e" text-anchor="middle">added/removed</text>
<rect x="585" y="220" width="155" height="52" rx="6" fill="#161b22" stroke="#58a6ff" stroke-width="2"/>
<text x="662" y="241" font-family="sans-serif" font-size="12" fill="#58a6ff" text-anchor="middle" font-weight="700">Branch Manager</text>
<text x="662" y="258" font-family="monospace" font-size="10" fill="#8b949e" text-anchor="middle">create · switch</text>
<text x="662" y="270" font-family="monospace" font-size="10" fill="#8b949e" text-anchor="middle">auto-branch</text>
<line x1="185" y1="246" x2="213" y2="246" stroke="#58a6ff" stroke-width="1.5" marker-end="url(#arr)"/>
<line x1="215" y1="256" x2="187" y2="256" stroke="#58a6ff" stroke-width="1.5" marker-end="url(#arr)"/>
<path d="M185,240 Q310,210 398,240" fill="none" stroke="#bc8cff" stroke-width="1.2" stroke-dasharray="4,2" marker-end="url(#arr)"/>
<line x1="583" y1="246" x2="370" y2="246" stroke="#f0883e" stroke-width="1.2" stroke-dasharray="4,2" marker-end="url(#arr)"/>
<line x1="107" y1="272" x2="107" y2="318" stroke="#30363d" stroke-width="1.5" marker-end="url(#arr-m)"/>
<line x1="292" y1="272" x2="292" y2="318" stroke="#30363d" stroke-width="1.5" marker-end="url(#arr-m)"/>
<line x1="477" y1="272" x2="400" y2="318" stroke="#30363d" stroke-width="1.2" marker-end="url(#arr-m)"/>
<line x1="662" y1="272" x2="600" y2="318" stroke="#30363d" stroke-width="1.2" marker-end="url(#arr-m)"/>
<text x="16" y="315" font-family="sans-serif" font-size="11" fill="#8b949e" letter-spacing="1">STORAGE LAYER</text>
<rect x="30" y="320" width="210" height="54" rx="6" fill="#161b22" stroke="#3fb950" stroke-width="1.5"/>
<text x="135" y="340" font-family="sans-serif" font-size="12" fill="#3fb950" text-anchor="middle" font-weight="700">Object Store</text>
<text x="135" y="357" font-family="monospace" font-size="10" fill="#8b949e" text-anchor="middle">content-addressable</text>
<text x="135" y="369" font-family="monospace" font-size="10" fill="#8b949e" text-anchor="middle">deduplicated · SHA-256</text>
<rect x="290" y="320" width="200" height="54" rx="6" fill="#161b22" stroke="#3fb950" stroke-width="1.5"/>
<text x="390" y="340" font-family="sans-serif" font-size="12" fill="#3fb950" text-anchor="middle" font-weight="700">Index</text>
<text x="390" y="357" font-family="monospace" font-size="10" fill="#8b949e" text-anchor="middle">branches · checkpoints</text>
<text x="390" y="369" font-family="monospace" font-size="10" fill="#8b949e" text-anchor="middle">HEAD · tags</text>
<rect x="540" y="320" width="210" height="54" rx="6" fill="#161b22" stroke="#3fb950" stroke-width="1.5"/>
<text x="645" y="340" font-family="sans-serif" font-size="12" fill="#3fb950" text-anchor="middle" font-weight="700">Cache Layer</text>
<text x="645" y="357" font-family="monospace" font-size="10" fill="#8b949e" text-anchor="middle">LRU snapshots</text>
<text x="645" y="369" font-family="monospace" font-size="10" fill="#8b949e" text-anchor="middle">mtime · singleflight</text>
<text x="170" y="308" font-family="monospace" font-size="9" fill="#3fb950" text-anchor="middle">SHA-256 blobs</text>
<text x="390" y="308" font-family="monospace" font-size="9" fill="#3fb950" text-anchor="middle">atomic write</text>
<line x1="135" y1="374" x2="135" y2="420" stroke="#30363d" stroke-width="1.5" marker-end="url(#arr-m)"/>
<line x1="390" y1="374" x2="390" y2="420" stroke="#30363d" stroke-width="1.5" marker-end="url(#arr-m)"/>
<line x1="645" y1="374" x2="645" y2="420" stroke="#30363d" stroke-width="1.5" marker-end="url(#arr-m)"/>
<text x="16" y="415" font-family="sans-serif" font-size="11" fill="#8b949e" letter-spacing="1">PERSISTENCE</text>
<rect x="30" y="422" width="210" height="42" rx="6" fill="#0d1117" stroke="#30363d" stroke-width="1.5" stroke-dasharray="5,3"/>
<text x="135" y="439" font-family="monospace" font-size="11" fill="#8b949e" text-anchor="middle">.rewind/objects/</text>
<text x="135" y="456" font-family="monospace" font-size="10" fill="#6e7681" text-anchor="middle">ab/cdef1234...  7c/9d4e...</text>
<rect x="290" y="422" width="200" height="42" rx="6" fill="#0d1117" stroke="#30363d" stroke-width="1.5" stroke-dasharray="5,3"/>
<text x="390" y="439" font-family="monospace" font-size="11" fill="#8b949e" text-anchor="middle">.rewind/index.json</text>
<text x="390" y="456" font-family="monospace" font-size="10" fill="#6e7681" text-anchor="middle">fsync + rename (atomic)</text>
<rect x="540" y="422" width="210" height="42" rx="6" fill="#0d1117" stroke="#30363d" stroke-width="1.5" stroke-dasharray="5,3"/>
<text x="645" y="439" font-family="monospace" font-size="11" fill="#8b949e" text-anchor="middle">.rewind/last-scan.json</text>
<text x="645" y="456" font-family="monospace" font-size="10" fill="#6e7681" text-anchor="middle">mtime cache</text>
<rect x="574" y="502" width="206" height="66" rx="6" fill="#161b22" stroke="#30363d" stroke-width="1"/>
<text x="588" y="518" font-family="sans-serif" font-size="10" fill="#8b949e">legend</text>
<rect x="588" y="525" width="10" height="10" rx="2" fill="#58a6ff"/>
<text x="604" y="535" font-family="sans-serif" font-size="11" fill="#e6edf3">core engine</text>
<rect x="588" y="541" width="10" height="10" rx="2" fill="#3fb950"/>
<text x="604" y="551" font-family="sans-serif" font-size="11" fill="#e6edf3">storage layer</text>
<rect x="588" y="557" width="10" height="10" rx="2" fill="#f0883e"/>
<text x="604" y="567" font-family="sans-serif" font-size="11" fill="#e6edf3">user interface</text>
</svg>
